<svg width="13" height="12" viewBox="0 0 13 12" fill="none" xmlns="http://www.w3.org/2000/svg">
<path d="M4.19135 0.00622896L4.202 0.00589452C4.53906 -0.00399881 4.89385 0.00154672 5.23291 0.00157005L6.97224 0.00156226L7.84818 0.00145341C8.43035 0.00159341 8.93147 -0.0120722 9.45647 0.282589C9.74985 0.447244 10.0364 0.684125 10.305 0.890555C10.7715 1.24936 11.2295 1.60028 11.661 2.00103C12.2159 2.51631 12.5158 3.05255 12.54 3.81858C12.5529 4.22093 12.4473 4.61421 12.2504 4.96594C11.9556 5.49285 11.5334 5.99982 11.1489 6.46659L10.0041 7.85044L8.69402 9.43276C8.35623 9.84039 8.01315 10.264 7.64892 10.6468C7.29713 11.0125 6.88131 11.3435 6.35467 11.3755C5.74454 11.4124 5.27028 11.048 4.87064 10.6278C4.58335 10.3258 4.31948 10.0055 4.05287 9.68452L2.80372 8.17649L1.47846 6.57559C1.10259 6.12094 0.698999 5.63774 0.386309 5.13897C0.167855 4.79053 0.0199606 4.4097 0.00254304 3.99746C-0.0258847 3.32459 0.183745 2.72698 0.645566 2.2337C1.09436 1.75433 1.649 1.34141 2.16833 0.938085C2.47834 0.697331 2.857 0.383972 3.20582 0.217948C3.52963 0.0638312 3.83838 0.0218078 4.19135 0.00622896ZM7.42103 4.08385C7.68718 4.06013 7.90006 3.88863 7.86786 3.60298C7.85487 3.48257 7.79343 3.37264 7.69761 3.29856C7.55683 3.19069 7.27255 3.21296 7.09763 3.21292L6.52431 3.21287C6.0856 3.21287 5.55887 3.19901 5.12956 3.21473C4.98453 3.22687 4.87325 3.24385 4.77163 3.36425C4.69566 3.45392 4.6587 3.57024 4.66897 3.68732C4.68014 3.80413 4.7375 3.91165 4.8283 3.98599C4.97963 4.10882 5.20919 4.08544 5.39477 4.08539L5.90058 4.08532C6.40015 4.08523 6.9232 4.09287 7.42103 4.08385Z" fill="#8A94A6"/>
</svg>
